<svg width="21" height="10" viewBox="0 0 21 10" fill="none" xmlns="http://www.w3.org/2000/svg">
<path d="M10.8367 8.29096L2.05543 0.207616C1.98466 0.141065 1.90065 0.0884504 1.80825 0.0528173C1.71584 0.0171843 1.61689 -0.000760078 1.5171 2.47955e-05C1.41732 0.000808716 1.3187 0.0203047 1.22693 0.0573854C1.13517 0.0944653 1.05209 0.148393 0.982499 0.216047C0.912911 0.283702 0.858197 0.363739 0.821523 0.45153C0.78485 0.539319 0.766945 0.63312 0.768844 0.727498C0.770743 0.821877 0.79241 0.914963 0.832589 1.00137C0.872769 1.08777 0.930663 1.16578 1.00292 1.23088L10.3105 9.79778C10.4514 9.92745 10.6402 10 10.8367 10C11.0333 10 11.2221 9.92745 11.363 9.79778L20.6705 1.23088C20.7428 1.16578 20.8007 1.08777 20.8409 1.00137C20.8811 0.914963 20.9027 0.821877 20.9046 0.727498C20.9065 0.63312 20.8886 0.539319 20.8519 0.45153C20.8153 0.363739 20.7606 0.283702 20.691 0.216047C20.6214 0.148393 20.5383 0.0944653 20.4465 0.0573854C20.3548 0.0203047 20.2561 0.000808716 20.1564 2.47955e-05C20.0566 -0.000760078 19.9576 0.0171843 19.8652 0.0528173C19.7728 0.0884504 19.6888 0.141065 19.618 0.207616L10.8367 8.29096Z" fill="#7A7A7A"/>
</svg>
